<?xml version="1.0" standalone="no"?>
<!DOCTYPE svg PUBLIC "-//W3C//DTD SVG 20010904//EN"
 "http://www.w3.org/TR/2001/REC-SVG-20010904/DTD/svg10.dtd">
<svg version="1.0" xmlns="http://www.w3.org/2000/svg"
 width="400.000000pt" height="400.000000pt" viewBox="0 0 400.000000 400.000000"
 preserveAspectRatio="xMidYMid meet">
<metadata>
Created by potrace 1.14, written by Peter Selinger 2001-2017
</metadata>
<g transform="translate(0.000000,400.000000) scale(0.100000,-0.100000)"
fill="#000000" stroke="none">
<path d="M0 2000 l0 -2000 2000 0 2000 0 0 2000 0 2000 -2000 0 -2000 0 0
-2000z m1628 1844 l62 -6 0 -34 c0 -33 1 -34 40 -34 l40 0 0 -115 0 -115 -115
0 -115 0 0 115 0 115 -40 0 c-39 0 -40 1 -40 33 0 19 2 36 4 38 8 7 100 9 164
3z m1140 -36 c3 -35 5 -37 40 -40 l37 -3 3 -112 3 -113 -116 0 -115 0 0 114 0
115 -37 3 c-31 2 -39 7 -41 26 -7 46 0 48 114 48 l109 -1 3 -37z m-998 -388
l0 -40 -115 0 -115 0 0 40 0 40 115 0 115 0 0 -40z m1080 0 l0 -40 -115 0
-115 0 0 40 0 40 115 0 115 0 0 -40z m-770 -305 l0 -35 53 -1 c28 -1 61 -2 72
-3 16 -1 21 -9 23 -38 3 -36 5 -38 38 -38 33 0 34 -1 34 -39 l0 -39 -110 -1
-110 -1 0 40 0 40 -80 0 -80 0 0 40 c0 39 -1 40 -35 40 -33 0 -35 2 -35 35 l0
35 115 0 115 0 0 -35z m540 -615 l0 -40 -349 0 -350 0 1 40 0 40 349 0 349 0
0 -40z m-623 -792 c2 -29 -1 -36 -12 -31 -8 3 -15 0 -15 -6 0 -6 8 -11 18 -12
14 0 14 -2 -3 -8 l-20 -8 20 -5 c13 -4 7 -6 -15 -7 -26 0 -31 2 -20 9 13 9 13
10 0 10 -10 0 -16 13 -18 41 -3 50 1 56 35 55 25 -1 28 -5 30 -38z m763 3 c0
-33 -4 -40 -22 -44 -20 -4 -19 -4 4 -6 37 -1 26 -31 -11 -31 -25 0 -27 4 -29
41 -4 58 5 79 34 79 21 0 24 -4 24 -39z m-140 -1326 l0 -75 -62 -1 c-35 0 -71
-2 -80 -4 -16 -3 -18 6 -18 76 l0 79 80 0 80 0 0 -75z"/>
<path d="M2728 1643 c7 -3 16 -2 19 1 4 3 -2 6 -13 5 -11 0 -14 -3 -6 -6z"/>
</g>
</svg>
